# xmcd CD database file
#
# Track frame offsets:
#	150
#	21562
#	43162
#	64987
#	85650
#	105375
#	130425
#	152850
#	176925
#	194775
#	215287
#	240825
#	254962
#	273712
#	293962
#
# Disc length: 4253 seconds
#
# Revision: 17
# Processed by: cddbd v1.5.2PL0 Copyright (c) Steve Scherf et al.
# Submitted via: CDex 1.70beta3
#
DISCID=f1109b0f
DTITLE=雎ｬ諛ｷ・ｴ蠑ｱ竕郢ｧ繝ｻ竏ｩ - A COMPLETE ALL SINGLES (Disc-1)
DYEAR=2008
DGENRE=J-Pop
TTITLE0=poker face 
TTITLE1=YOU
TTITLE2=Trust
TTITLE3=For My Dear... 
TTITLE4=Depend on you 
TTITLE5=WHATEVER 
TTITLE6=LOVE ~Destiny~
TTITLE7=TO BE 
TTITLE8=Boys and Girls 
TTITLE9=monochrome 
TTITLE10=appears
TTITLE11=kanariya
TTITLE12=Fly high 
TTITLE13=vogue
TTITLE14=Far away 
EXTD=YEAR: 2008
EXTT0=
EXTT1=
EXTT2=
EXTT3=
EXTT4=
EXTT5=
EXTT6=
EXTT7=
EXTT8=
EXTT9=
EXTT10=
EXTT11=
EXTT12=
EXTT13=
EXTT14=
PLAYORDER=
